<svg xmlns="http://www.w3.org/2000/svg" viewBox="0 0 64 64" id="charity"><path fill="#010101" d="M23.81 29.26c.08.08.18.14.28.19.42 5.75 5.22 10.3 11.08 10.3 6.13 0 11.12-4.99 11.12-11.12 0-3.16-1.34-6.02-3.47-8.04l.33-4.57c.08-1.22-.29-2.35-1.17-3.57-.34-.47-.76-.91-1.34-1.4-.63-.53-1.25-1.1-1.87-1.67-1.45-1.33-2.95-2.7-4.71-3.81-1.81-1.13-4-2.27-6.59-2.1l-2.88.18c-.8.05-1.61.16-2.39.33L9.41 6.76V5.29c0-.54-.43-.97-.97-.97H.97c-.54 0-.97.43-.97.97v18.88c0 .54.43.97.97.97h7.47c.44 0 .79-.3.91-.69 2.87 1.95 5.21 1.97 7.31 1.99 2.36 0 4.4.02 7.15 2.82zM7.47 23.2H1.94V6.26h5.53V23.2zm36.88 5.43c0 5.06-4.12 9.18-9.18 9.18s-9.18-4.12-9.18-9.18 4.12-9.18 9.18-9.18 9.18 4.12 9.18 9.18zM26.88 16.98l3.19-3.22 3.83 3.83c-1.72.2-3.31.79-4.7 1.68l-2.32-2.29zM9.41 8.75l13.2-2.88c.69-.15 1.39-.25 2.1-.29l2.88-.18c2.03-.13 3.81.79 5.43 1.81 1.61 1.02 3.05 2.33 4.43 3.6.65.59 1.28 1.17 1.93 1.72.45.39.78.72 1.02 1.06.61.84.86 1.56.81 2.3l-.24 3.29c-1.29-.79-2.74-1.33-4.3-1.54l-5.24-5.24c-.75-.75-1.96-.75-2.71 0l-3.22 3.22c-.36.36-.56.84-.56 1.36 0 .51.2.99.56 1.36l2.15 2.15a11.098 11.098 0 0 0-3.46 6.5c-2.86-2.44-5.22-2.46-7.52-2.48-2.25-.01-4.38-.03-7.26-2.43V8.75z"></path><path fill="#010101" d="M35.04 23.11c-.01.02-.02.05-.03.09l-.13 1.28c-.37.04-.7.12-.99.25-.29.12-.54.28-.74.47-.2.2-.35.42-.46.68-.11.26-.16.55-.16.87 0 .35.05.65.16.9.1.25.24.46.42.63.17.17.37.32.59.44.22.12.44.22.67.31.23.09.45.17.67.25.22.08.41.17.59.27.17.1.31.22.42.35.1.13.16.3.16.5 0 .31-.12.55-.36.74-.24.18-.61.28-1.11.28-.32 0-.6-.03-.83-.1-.24-.06-.44-.13-.6-.21-.17-.08-.3-.15-.41-.21-.11-.06-.19-.1-.24-.1-.04 0-.08.01-.11.03-.03.02-.06.05-.08.1-.02.05-.04.12-.04.22-.01.09-.01.21-.01.36 0 .19.01.33.03.42.02.1.06.17.11.22.05.05.12.1.22.15.1.05.21.1.34.15.13.05.28.09.44.13.16.04.33.07.52.1l-.13 1.29a.19.19 0 0 0 .01.13c.01.04.05.07.09.09.05.02.11.04.19.05.08.01.19.02.33.02.11 0 .19-.01.26-.02s.13-.02.17-.04c.04-.02.07-.04.08-.06l.03-.09.13-1.36c.41-.03.78-.11 1.11-.24.34-.13.62-.3.86-.51.24-.21.42-.47.55-.76.13-.29.19-.62.19-.99 0-.34-.05-.64-.16-.88a2.117 2.117 0 0 0-1.02-1.05c-.22-.12-.45-.22-.68-.31-.23-.09-.46-.17-.68-.25-.22-.08-.42-.17-.6-.27s-.32-.21-.42-.35a.769.769 0 0 1-.16-.5c0-.13.02-.24.07-.35.05-.11.12-.2.22-.27.1-.08.23-.14.38-.18.16-.04.35-.06.57-.06.24 0 .46.03.67.08.2.06.38.11.53.18.15.06.29.12.39.18.11.06.19.08.24.08.03 0 .06-.01.08-.02.02-.02.04-.04.06-.09a.47.47 0 0 0 .03-.19c.01-.08.01-.19.01-.32 0-.1 0-.18-.01-.26 0-.07-.01-.14-.02-.19-.01-.05-.03-.1-.04-.13-.02-.04-.05-.07-.08-.11a.623.623 0 0 0-.19-.12c-.09-.04-.2-.09-.31-.13-.11-.04-.24-.08-.37-.11s-.26-.05-.38-.07l.13-1.2c0-.05-.01-.09-.02-.13-.01-.04-.04-.07-.09-.09a.721.721 0 0 0-.2-.05c-.11-.03-.22-.03-.35-.03-.11 0-.2 0-.27.01a.53.53 0 0 0-.16.04c-.04.02-.07.04-.08.06zm27.9 16.49a.975.975 0 0 0-.97-.92h-7.49c-.54 0-.97.43-.97.97v1.71h-2.87c-1.09 0-2.15.24-3.15.73l-5.2 2.5c-.48.24-1 .36-1.55.36h-7.18c-1.44 0-2.4 1.57-2.82 2.92l-10.63-4.22c-1.69-.68-3.62.04-4.46 1.59-.46.86-.56 1.84-.28 2.78.28.92.89 1.67 1.73 2.12l18.17 9.69c.91.48 1.92.73 2.93.73.4 0 .8-.04 1.19-.12 3.17-.64 7.6-2.32 9.96-3.27.58-.23 1.18-.34 1.79-.34h2.37v1.7c0 .54.43.97.97.97h8.55a.96.96 0 0 0 .96-1.02L62.94 39.6zm-9.43 15.29h-2.37c-.86 0-1.71.16-2.51.48-2.3.92-6.61 2.55-9.62 3.17-.95.19-1.95.04-2.83-.43L18 48.42c-.38-.2-.66-.54-.79-.97-.13-.44-.09-.89.13-1.29.38-.71 1.22-1.04 2.04-.71l11.47 4.56.09.06c.61 1.45 1.56 2.31 2.6 2.31h8.01c.54 0 .97-.43.97-.97s-.43-.97-.97-.97h-8.01c-.14-.02-.62-.48-.95-1.44-.03-.11-.07-.22-.09-.33.25-.98.81-1.74 1.04-1.78h7.18c.85 0 1.65-.19 2.4-.55l5.2-2.5c.74-.35 1.51-.53 2.31-.53h2.87v11.58zm1.94 2.67V40.62h5.6L62 57.56h-6.55z"></path></svg>